<?xml version="1.0" encoding="UTF-8" standalone="no"?>
<svg
   xmlns:dc="http://purl.org/dc/elements/1.1/"
   xmlns:cc="http://creativecommons.org/ns#"
   xmlns:rdf="http://www.w3.org/1999/02/22-rdf-syntax-ns#"
   xmlns:svg="http://www.w3.org/2000/svg"
   xmlns="http://www.w3.org/2000/svg"
   width="32mm"
   height="32mm"
   viewBox="0 0 32 32"
   version="1.1"
   id="svg8">
  <defs
     id="defs2" />
  <metadata
     id="metadata5">
    <rdf:RDF>
      <cc:Work
         rdf:about="">
        <dc:format>image/svg+xml</dc:format>
        <dc:type
           rdf:resource="http://purl.org/dc/dcmitype/StillImage" />
        <dc:title></dc:title>
      </cc:Work>
    </rdf:RDF>
  </metadata>
  <g
     id="layer1">
    <path
       id="path4528"
       d="m 20.547094,31.354807 c -0.265381,-0.0542 -0.432516,-0.182733 -0.538066,-0.413847 -0.04182,-0.09163 -0.04925,-0.413166 -0.06402,-2.76901 -0.01613,-2.575445 -0.01876,-2.674618 -0.07934,-2.940231 -0.16858,-0.739574 -0.444674,-1.3167 -0.806211,-1.685181 l -0.150652,-0.153549 0.141432,-0.01907 c 1.282422,-0.173202 2.069229,-0.359773 2.895626,-0.686603 0.482367,-0.190779 0.727217,-0.31025 1.095596,-0.534579 1.785822,-1.087494 2.750339,-2.861614 2.978508,-5.478647 0.04677,-0.53631 0.02108,-1.772259 -0.04423,-2.125008 -0.209202,-1.130766 -0.623998,-2.041378 -1.314113,-2.88497 l -0.203885,-0.249225 0.07145,-0.224616 C 24.877938,10.093644 24.82559,8.7117787 24.389808,7.511111 24.282742,7.2161146 24.289637,7.220345 23.915281,7.2198021 23.350034,7.2190043 22.631564,7.4186436 21.786328,7.8114312 21.339588,8.0190291 21.002085,8.2066702 20.441755,8.5589955 L 19.974156,8.8530106 19.597732,8.7629969 C 17.264239,8.2050463 14.860607,8.1996019 12.573764,8.7471144 12.338156,8.803553 12.127669,8.8428778 12.106021,8.8345671 12.084389,8.826318 11.87735,8.7009022 11.645957,8.5559901 10.625355,7.916835 9.6768837,7.4891721 8.8708481,7.3047075 8.5728032,7.2364616 7.9720028,7.1997715 7.8621014,7.2430855 7.7988788,7.2679928 7.7681848,7.3264876 7.6779396,7.5941746 7.2611328,8.830562 7.2190981,10.057986 7.5557864,11.160894 l 0.077665,0.254398 -0.2010847,0.249058 c -1.0447153,1.293981 -1.4817096,2.741503 -1.3792877,4.568786 0.053557,0.955552 0.1657773,1.686721 0.3664225,2.387516 0.4857427,1.69654 1.5173181,2.9781 3.0151367,3.745789 0.9498378,0.486828 2.0009718,0.791594 3.3731808,0.978039 0.186307,0.0253 0.342434,0.04973 0.346944,0.0542 0.0048,0.0048 -0.05308,0.06753 -0.127902,0.140042 -0.358477,0.347208 -0.656899,0.973816 -0.803184,1.686434 l -0.05165,0.25154 -0.230674,0.09887 C 11.617508,25.71438 11.075865,25.844659 10.695474,25.875232 9.7612895,25.950342 8.9448453,25.669257 8.2973562,25.049673 8.0586999,24.821298 7.9315406,24.660413 7.5944373,24.160318 7.0536411,23.358043 6.3854369,22.812249 5.7428012,22.647892 c -0.2786251,-0.07129 -0.790446,-0.07943 -1.0013558,-0.01597 -0.1900519,0.05724 -0.2536635,0.120178 -0.2534801,0.250973 2.475e-4,0.200629 0.2827028,0.4833 0.7721343,0.772805 0.4558883,0.269668 1.1946642,1.313043 1.5702346,2.21766 0.4571184,1.101048 1.2445142,1.691631 2.5587621,1.9192 0.5710507,0.09888 1.8081247,0.06162 2.5468687,-0.07663 0.08143,-0.01524 0.150149,-0.02546 0.152711,-0.02275 0.0023,0.0023 0.0087,0.697954 0.01357,1.544938 l 0.009,1.539983 -0.06682,0.147705 c -0.08756,0.193556 -0.16537,0.274545 -0.345269,0.359382 -0.220768,0.104111 -0.544245,0.09839 -0.87549,-0.01549 C 9.196163,30.710175 7.5652228,29.799435 6.1463259,28.657814 4.2002893,27.092064 2.6703976,25.093832 1.6395385,22.771379 1.0585666,21.462494 0.62379959,19.904785 0.4481073,18.50269 0.34917966,17.713163 0.33060072,17.390261 0.33060072,16.459254 c 0,-1.133552 0.0598737,-1.844533 0.23694863,-2.813425 C 1.0021415,11.267891 2.0111123,8.9618101 3.4570527,7.0416757 4.4949681,5.6633853 5.8394692,4.3848671 7.2556365,3.4295296 7.9916179,2.9330426 9.1221682,2.3280512 10.025883,1.9470849 10.850118,1.5996365 12.246761,1.1917217 13.209505,1.0172513 14.1952,0.83862982 14.892299,0.78058213 16.037736,0.78177148 c 1.541012,0.001601 2.665064,0.15010038 4.116489,0.54386242 3.329229,0.9032125 6.291867,2.914129 8.38003,5.6880318 0.434177,0.57675 0.570155,0.7783765 0.941504,1.3960038 1.140001,1.8960595 1.878186,4.0763385 2.123755,6.2726865 0.227618,2.035725 0.07503,3.962054 -0.472675,5.967422 -0.604497,2.213303 -1.726466,4.306701 -3.269689,6.100697 -0.349211,0.405967 -1.219193,1.272365 -1.63185,1.62513 -1.133208,0.968756 -2.387397,1.770025 -3.715598,2.373787 -1.116877,0.507711 -1.644335,0.670431 -1.962568,0.605454 z"
       style="fill:#ffffff;stroke-width:0.02961502" />
  </g>
</svg>
