<?xml version="1.0" encoding="UTF-8" standalone="no"?>
<svg
   xmlns:dc="http://purl.org/dc/elements/1.1/"
   xmlns:cc="http://creativecommons.org/ns#"
   xmlns:rdf="http://www.w3.org/1999/02/22-rdf-syntax-ns#"
   xmlns:svg="http://www.w3.org/2000/svg"
   xmlns="http://www.w3.org/2000/svg"
   xmlns:sodipodi="http://sodipodi.sourceforge.net/DTD/sodipodi-0.dtd"
   xmlns:inkscape="http://www.inkscape.org/namespaces/inkscape"
   inkscape:version="1.0 (6e3e5246a0, 2020-05-07)"
   sodipodi:docname="sh-pictogram.svg"
   id="svg8"
   version="1.1"
   viewBox="0 0 32 32"
   height="32mm"
   width="32mm">
  <defs
     id="defs2" />
  <sodipodi:namedview
     inkscape:window-maximized="1"
     inkscape:window-y="22"
     inkscape:window-x="1366"
     inkscape:window-height="1058"
     inkscape:window-width="1920"
     units="mm"
     showgrid="true"
     inkscape:document-rotation="0"
     inkscape:current-layer="layer1"
     inkscape:document-units="mm"
     inkscape:cy="124.33843"
     inkscape:cx="-14.674932"
     inkscape:zoom="0.98994949"
     inkscape:pageshadow="2"
     inkscape:pageopacity="0.0"
     borderopacity="1.0"
     bordercolor="#000000"
     pagecolor="#ffffff"
     id="base">
    <inkscape:grid
       empspacing="4"
       spacingy="0.99999997"
       spacingx="0.99999997"
       units="mm"
       id="grid833"
       type="xygrid" />
  </sodipodi:namedview>
  <metadata
     id="metadata5">
    <rdf:RDF>
      <cc:Work
         rdf:about="">
        <dc:format>image/svg+xml</dc:format>
        <dc:type
           rdf:resource="http://purl.org/dc/dcmitype/StillImage" />
        <dc:title></dc:title>
      </cc:Work>
    </rdf:RDF>
  </metadata>
  <g
     id="layer1"
     inkscape:groupmode="layer"
     inkscape:label="Layer 1">
    <path
       transform="scale(0.26458333)"
       d="m 22.677734,0 v 15.117188 h -7.560546 v 7.560546 H 0 v 7.558594 H 15.117188 V 41.574219 H 0 v 7.560547 H 15.117188 V 71.810547 H 0 v 7.558594 H 15.117188 V 90.708984 H 0 v 7.558594 h 15.117188 v 7.558592 h 7.560546 v 15.11914 h 7.558594 v -15.11914 h 11.337891 v 15.11914 h 7.560547 v -15.11914 h 22.675781 v 15.11914 h 7.558594 v -15.11914 h 11.339843 v 15.11914 h 7.558594 v -15.11914 h 7.558592 v -7.558592 h 15.11914 V 90.708984 H 105.82617 V 79.369141 h 15.11914 V 71.810547 H 105.82617 V 49.134766 h 15.11914 V 41.574219 H 105.82617 V 30.236328 h 15.11914 V 22.677734 H 105.82617 V 15.117188 H 98.267578 V 0 H 90.708984 V 15.117188 H 79.369141 V 0 H 71.810547 V 15.117188 H 49.134766 V 0 H 41.574219 V 15.117188 H 30.236328 V 0 Z m 3.779297,26.457031 h 68.03125 v 68.03125 h -68.03125 z m 37.794922,18.896485 v 7.560546 h 3.779297 v -7.560546 z m 0,7.560546 h -3.779297 v 7.558594 h 3.779297 z m -3.779297,7.558594 h -3.779297 v 7.558594 h 3.779297 z m -3.779297,7.558594 h -3.779297 v 7.558594 h 3.779297 z M 37.794922,49.134766 v 7.558593 h 7.558594 v -7.558593 z m 0,7.558593 h -7.558594 v 7.558594 h 7.558594 z m 0,7.558594 v 7.558594 h 7.558594 V 64.251953 Z M 75.589844,49.134766 v 7.558593 h 7.560547 v -7.558593 z m 7.560547,7.558593 v 7.558594 h 7.558593 v -7.558594 z m 0,7.558594 h -7.560547 v 7.558594 h 7.560547 z"
       style="opacity:0.999;fill:#101010;stroke-width:22.6772;stroke-linecap:round;stroke-linejoin:round;stroke-opacity:0.5"
       id="rect1345" />
  </g>
</svg>
