<?xml version="1.0" encoding="UTF-8" standalone="no"?>
<svg
   xmlns:dc="http://purl.org/dc/elements/1.1/"
   xmlns:cc="http://creativecommons.org/ns#"
   xmlns:rdf="http://www.w3.org/1999/02/22-rdf-syntax-ns#"
   xmlns:svg="http://www.w3.org/2000/svg"
   xmlns="http://www.w3.org/2000/svg"
   id="svg8"
   version="1.1"
   viewBox="0 0 16 16"
   height="16mm"
   width="16mm">
  <defs
     id="defs2" />
  <metadata
     id="metadata5">
    <rdf:RDF>
      <cc:Work
         rdf:about="">
        <dc:format>image/svg+xml</dc:format>
        <dc:type
           rdf:resource="http://purl.org/dc/dcmitype/StillImage" />
        <dc:title></dc:title>
      </cc:Work>
    </rdf:RDF>
  </metadata>
  <g
     id="layer1">
    <path
       transform="scale(0.26458333)"
       d="m 45.353516,7.5585938 v 3.7792972 h -3.779297 -3.779297 -3.779297 -3.779297 -3.779297 -3.779297 -3.779296 v 3.779297 h -3.78125 -3.779297 v 3.78125 H 7.5585938 3.7792969 v 3.779296 H 0 v 3.779297 3.779297 3.779297 3.779297 h 3.7792969 v 3.779297 h 3.7792969 3.7792972 v 3.779297 H 7.5585938 v 3.78125 3.779296 h 3.7792972 3.779297 v -3.779296 h 3.78125 3.779296 3.779297 3.779297 3.779297 3.779297 3.779297 v -3.78125 h 3.779297 3.78125 v -3.779297 h 3.779296 3.779297 v -3.779297 h 3.779297 v -3.779297 -3.779297 -3.779297 h -3.779297 v 3.779297 3.779297 h -3.779297 -3.779296 v 3.779297 h -3.78125 -3.779297 v 3.779297 h -3.779297 -3.779297 -3.779297 -3.779297 v -3.779297 h 3.779297 v -3.779297 h 3.779297 3.779297 v -3.779297 -3.779297 h 3.779297 v -3.779297 h 3.779297 3.78125 v 3.779297 h 3.779296 3.779297 v -3.779297 -3.779296 h -3.779297 -3.779296 v -3.78125 h 3.779296 V 11.337891 7.5585938 H 49.134766 Z M 18.898438,18.898438 h 3.779296 3.779297 3.779297 3.779297 v 3.779296 h -3.779297 v 3.779297 h -3.779297 -3.779297 v 3.779297 3.779297 h -3.779296 v 3.779297 h -3.78125 -3.779297 V 34.015625 H 7.5585938 3.7792969 v -3.779297 -3.779297 h 3.7792969 3.7792972 v -3.779297 h 3.779297 3.78125 z"
       style="opacity:0.999;fill:#ffffff;stroke:none;stroke-width:0.0755906;stroke-linecap:round;stroke-linejoin:round;stroke-miterlimit:4;stroke-dasharray:none;stroke-opacity:1"
       id="rect1875" />
  </g>
</svg>
